<mxfile host="app.diagrams.net" modified="2023-05-15T01:18:43.906Z" agent="Mozilla/5.0 (Windows NT 10.0; Win64; x64) AppleWebKit/537.36 (KHTML, like Gecko) Chrome/113.0.0.0 Safari/537.36" etag="6LmaAF6ftvCcu7HSN3A4" version="21.2.3" type="device">
  <diagram name="PÃ¡gina-1" id="lKf85ZOPfS_hmK7aLmTw">
    <mxGraphModel dx="880" dy="1621" grid="1" gridSize="10" guides="1" tooltips="1" connect="1" arrows="1" fold="1" page="1" pageScale="1" pageWidth="827" pageHeight="1169" math="0" shadow="0">
      <root>
        <mxCell id="0" />
        <mxCell id="1" parent="0" />
        <mxCell id="9FzsS78TiSVyDYdrgFTf-1" value="" style="sketch=0;points=[[0,0,0],[0.25,0,0],[0.5,0,0],[0.75,0,0],[1,0,0],[0,1,0],[0.25,1,0],[0.5,1,0],[0.75,1,0],[1,1,0],[0,0.25,0],[0,0.5,0],[0,0.75,0],[1,0.25,0],[1,0.5,0],[1,0.75,0]];outlineConnect=0;fontColor=#232F3E;gradientColor=#4D72F3;gradientDirection=north;fillColor=#3334B9;strokeColor=#ffffff;dashed=0;verticalLabelPosition=bottom;verticalAlign=top;align=center;html=1;fontSize=12;fontStyle=0;aspect=fixed;shape=mxgraph.aws4.resourceIcon;resIcon=mxgraph.aws4.redshift;" vertex="1" parent="1">
          <mxGeometry x="670" y="132" width="78" height="78" as="geometry" />
        </mxCell>
        <mxCell id="9FzsS78TiSVyDYdrgFTf-6" style="edgeStyle=orthogonalEdgeStyle;rounded=0;orthogonalLoop=1;jettySize=auto;html=1;startArrow=classic;startFill=1;" edge="1" parent="1" source="9FzsS78TiSVyDYdrgFTf-2" target="9FzsS78TiSVyDYdrgFTf-5">
          <mxGeometry relative="1" as="geometry" />
        </mxCell>
        <mxCell id="9FzsS78TiSVyDYdrgFTf-8" style="edgeStyle=orthogonalEdgeStyle;rounded=0;orthogonalLoop=1;jettySize=auto;html=1;" edge="1" parent="1" source="9FzsS78TiSVyDYdrgFTf-2" target="9FzsS78TiSVyDYdrgFTf-4">
          <mxGeometry relative="1" as="geometry" />
        </mxCell>
        <mxCell id="9FzsS78TiSVyDYdrgFTf-2" value="" style="sketch=0;points=[[0,0,0],[0.25,0,0],[0.5,0,0],[0.75,0,0],[1,0,0],[0,1,0],[0.25,1,0],[0.5,1,0],[0.75,1,0],[1,1,0],[0,0.25,0],[0,0.5,0],[0,0.75,0],[1,0.25,0],[1,0.5,0],[1,0.75,0]];outlineConnect=0;fontColor=#232F3E;gradientColor=#945DF2;gradientDirection=north;fillColor=#5A30B5;strokeColor=#ffffff;dashed=0;verticalLabelPosition=bottom;verticalAlign=top;align=center;html=1;fontSize=12;fontStyle=0;aspect=fixed;shape=mxgraph.aws4.resourceIcon;resIcon=mxgraph.aws4.kinesis_data_firehose;" vertex="1" parent="1">
          <mxGeometry x="270" y="132" width="78" height="78" as="geometry" />
        </mxCell>
        <mxCell id="9FzsS78TiSVyDYdrgFTf-3" value="" style="sketch=0;points=[[0,0,0],[0.25,0,0],[0.5,0,0],[0.75,0,0],[1,0,0],[0,1,0],[0.25,1,0],[0.5,1,0],[0.75,1,0],[1,1,0],[0,0.25,0],[0,0.5,0],[0,0.75,0],[1,0.25,0],[1,0.5,0],[1,0.75,0]];outlineConnect=0;fontColor=#232F3E;gradientColor=#4AB29A;gradientDirection=north;fillColor=#116D5B;strokeColor=#ffffff;dashed=0;verticalLabelPosition=bottom;verticalAlign=top;align=center;html=1;fontSize=12;fontStyle=0;aspect=fixed;shape=mxgraph.aws4.resourceIcon;resIcon=mxgraph.aws4.comprehend;" vertex="1" parent="1">
          <mxGeometry x="470" y="-28" width="78" height="78" as="geometry" />
        </mxCell>
        <mxCell id="9FzsS78TiSVyDYdrgFTf-9" style="edgeStyle=orthogonalEdgeStyle;rounded=0;orthogonalLoop=1;jettySize=auto;html=1;entryX=0;entryY=0.5;entryDx=0;entryDy=0;entryPerimeter=0;" edge="1" parent="1" source="9FzsS78TiSVyDYdrgFTf-4" target="9FzsS78TiSVyDYdrgFTf-1">
          <mxGeometry relative="1" as="geometry">
            <mxPoint x="590" y="171" as="targetPoint" />
          </mxGeometry>
        </mxCell>
        <mxCell id="9FzsS78TiSVyDYdrgFTf-4" value="" style="sketch=0;points=[[0,0,0],[0.25,0,0],[0.5,0,0],[0.75,0,0],[1,0,0],[0,1,0],[0.25,1,0],[0.5,1,0],[0.75,1,0],[1,1,0],[0,0.25,0],[0,0.5,0],[0,0.75,0],[1,0.25,0],[1,0.5,0],[1,0.75,0]];outlineConnect=0;fontColor=#232F3E;gradientColor=#60A337;gradientDirection=north;fillColor=#277116;strokeColor=#ffffff;dashed=0;verticalLabelPosition=bottom;verticalAlign=top;align=center;html=1;fontSize=12;fontStyle=0;aspect=fixed;shape=mxgraph.aws4.resourceIcon;resIcon=mxgraph.aws4.s3;" vertex="1" parent="1">
          <mxGeometry x="470" y="132" width="78" height="78" as="geometry" />
        </mxCell>
        <mxCell id="9FzsS78TiSVyDYdrgFTf-7" style="edgeStyle=orthogonalEdgeStyle;rounded=0;orthogonalLoop=1;jettySize=auto;html=1;startArrow=classic;startFill=1;" edge="1" parent="1" source="9FzsS78TiSVyDYdrgFTf-5" target="9FzsS78TiSVyDYdrgFTf-3">
          <mxGeometry relative="1" as="geometry" />
        </mxCell>
        <mxCell id="9FzsS78TiSVyDYdrgFTf-5" value="" style="sketch=0;points=[[0,0,0],[0.25,0,0],[0.5,0,0],[0.75,0,0],[1,0,0],[0,1,0],[0.25,1,0],[0.5,1,0],[0.75,1,0],[1,1,0],[0,0.25,0],[0,0.5,0],[0,0.75,0],[1,0.25,0],[1,0.5,0],[1,0.75,0]];outlineConnect=0;fontColor=#232F3E;gradientColor=#F78E04;gradientDirection=north;fillColor=#D05C17;strokeColor=#ffffff;dashed=0;verticalLabelPosition=bottom;verticalAlign=top;align=center;html=1;fontSize=12;fontStyle=0;aspect=fixed;shape=mxgraph.aws4.resourceIcon;resIcon=mxgraph.aws4.lambda;" vertex="1" parent="1">
          <mxGeometry x="270" y="-28" width="78" height="78" as="geometry" />
        </mxCell>
        <mxCell id="9FzsS78TiSVyDYdrgFTf-11" style="edgeStyle=orthogonalEdgeStyle;rounded=0;orthogonalLoop=1;jettySize=auto;html=1;entryX=0;entryY=0.5;entryDx=0;entryDy=0;entryPerimeter=0;startArrow=classic;startFill=1;strokeColor=#fe4d9a;strokeWidth=2;" edge="1" parent="1" source="9FzsS78TiSVyDYdrgFTf-10" target="9FzsS78TiSVyDYdrgFTf-2">
          <mxGeometry relative="1" as="geometry" />
        </mxCell>
        <mxCell id="9FzsS78TiSVyDYdrgFTf-10" value="" style="outlineConnect=0;dashed=0;verticalLabelPosition=bottom;verticalAlign=top;align=center;html=1;shape=mxgraph.aws3.android;fillColor=#96BF3D;gradientColor=none;" vertex="1" parent="1">
          <mxGeometry x="68.25" y="70" width="73.5" height="84" as="geometry" />
        </mxCell>
        <mxCell id="9FzsS78TiSVyDYdrgFTf-12" value="" style="endArrow=none;dashed=1;html=1;dashPattern=1 3;strokeWidth=2;rounded=0;" edge="1" parent="1">
          <mxGeometry width="50" height="50" relative="1" as="geometry">
            <mxPoint x="210" y="322" as="sourcePoint" />
            <mxPoint x="210" y="-98" as="targetPoint" />
          </mxGeometry>
        </mxCell>
        <mxCell id="9FzsS78TiSVyDYdrgFTf-13" value="" style="endArrow=none;dashed=1;html=1;dashPattern=1 3;strokeWidth=2;rounded=0;" edge="1" parent="1">
          <mxGeometry width="50" height="50" relative="1" as="geometry">
            <mxPoint x="10" y="280" as="sourcePoint" />
            <mxPoint x="842" y="280" as="targetPoint" />
          </mxGeometry>
        </mxCell>
        <mxCell id="9FzsS78TiSVyDYdrgFTf-14" value="&lt;b&gt;&lt;font style=&quot;font-size: 15px;&quot;&gt;Data producer&lt;/font&gt;&lt;/b&gt;" style="text;html=1;align=center;verticalAlign=middle;resizable=0;points=[];autosize=1;strokeColor=none;fillColor=none;" vertex="1" parent="1">
          <mxGeometry x="40" y="290" width="130" height="30" as="geometry" />
        </mxCell>
        <mxCell id="9FzsS78TiSVyDYdrgFTf-15" value="&lt;b&gt;&lt;font style=&quot;font-size: 15px;&quot;&gt;Data ingestion system&lt;/font&gt;&lt;/b&gt;" style="text;html=1;align=center;verticalAlign=middle;resizable=0;points=[];autosize=1;strokeColor=none;fillColor=none;" vertex="1" parent="1">
          <mxGeometry x="419" y="290" width="180" height="30" as="geometry" />
        </mxCell>
        <mxCell id="9FzsS78TiSVyDYdrgFTf-16" value="&lt;b&gt;&lt;font style=&quot;font-size: 15px;&quot;&gt;your software&lt;/font&gt;&lt;/b&gt;" style="text;html=1;align=center;verticalAlign=middle;resizable=0;points=[];autosize=1;strokeColor=none;fillColor=none;" vertex="1" parent="1">
          <mxGeometry x="45" y="160" width="120" height="30" as="geometry" />
        </mxCell>
        <mxCell id="9FzsS78TiSVyDYdrgFTf-17" value="&lt;b&gt;&lt;font style=&quot;font-size: 15px;&quot;&gt;Transform process&lt;/font&gt;&lt;/b&gt;" style="text;html=1;align=center;verticalAlign=middle;resizable=0;points=[];autosize=1;strokeColor=none;fillColor=none;" vertex="1" parent="1">
          <mxGeometry x="229" y="-78" width="160" height="30" as="geometry" />
        </mxCell>
        <mxCell id="9FzsS78TiSVyDYdrgFTf-18" value="&lt;b&gt;&lt;font style=&quot;font-size: 15px;&quot;&gt;Classifier process&lt;/font&gt;&lt;/b&gt;" style="text;html=1;align=center;verticalAlign=middle;resizable=0;points=[];autosize=1;strokeColor=none;fillColor=none;" vertex="1" parent="1">
          <mxGeometry x="434" y="-78" width="150" height="30" as="geometry" />
        </mxCell>
        <mxCell id="9FzsS78TiSVyDYdrgFTf-19" value="&lt;font style=&quot;font-size: 15px;&quot;&gt;Lambda&lt;/font&gt;" style="text;html=1;align=center;verticalAlign=middle;resizable=0;points=[];autosize=1;strokeColor=none;fillColor=none;fontSize=15;" vertex="1" parent="1">
          <mxGeometry x="269" y="-58" width="80" height="30" as="geometry" />
        </mxCell>
        <mxCell id="9FzsS78TiSVyDYdrgFTf-20" value="&lt;font style=&quot;font-size: 15px;&quot;&gt;Comprehend&lt;/font&gt;" style="text;html=1;align=center;verticalAlign=middle;resizable=0;points=[];autosize=1;strokeColor=none;fillColor=none;fontSize=15;" vertex="1" parent="1">
          <mxGeometry x="453" y="-58" width="110" height="30" as="geometry" />
        </mxCell>
        <mxCell id="9FzsS78TiSVyDYdrgFTf-21" value="&lt;b&gt;&lt;font style=&quot;font-size: 15px;&quot;&gt;Ingest service&lt;/font&gt;&lt;/b&gt;" style="text;html=1;align=center;verticalAlign=middle;resizable=0;points=[];autosize=1;strokeColor=none;fillColor=none;" vertex="1" parent="1">
          <mxGeometry x="247" y="210" width="120" height="30" as="geometry" />
        </mxCell>
        <mxCell id="9FzsS78TiSVyDYdrgFTf-22" value="&lt;font style=&quot;font-size: 15px;&quot;&gt;Kinesis firehose&lt;/font&gt;" style="text;html=1;align=center;verticalAlign=middle;resizable=0;points=[];autosize=1;strokeColor=none;fillColor=none;fontSize=15;" vertex="1" parent="1">
          <mxGeometry x="242" y="230" width="130" height="30" as="geometry" />
        </mxCell>
        <mxCell id="9FzsS78TiSVyDYdrgFTf-23" value="&lt;b&gt;&lt;font style=&quot;font-size: 15px;&quot;&gt;Destination source&lt;/font&gt;&lt;/b&gt;" style="text;html=1;align=center;verticalAlign=middle;resizable=0;points=[];autosize=1;strokeColor=none;fillColor=none;" vertex="1" parent="1">
          <mxGeometry x="429" y="210" width="160" height="30" as="geometry" />
        </mxCell>
        <mxCell id="9FzsS78TiSVyDYdrgFTf-24" value="&lt;font style=&quot;font-size: 15px;&quot;&gt;S3&lt;/font&gt;" style="text;html=1;align=center;verticalAlign=middle;resizable=0;points=[];autosize=1;strokeColor=none;fillColor=none;fontSize=15;" vertex="1" parent="1">
          <mxGeometry x="488" y="230" width="40" height="30" as="geometry" />
        </mxCell>
        <mxCell id="9FzsS78TiSVyDYdrgFTf-25" value="&lt;b&gt;&lt;font style=&quot;font-size: 15px;&quot;&gt;Data warehouse system&lt;/font&gt;&lt;/b&gt;" style="text;html=1;align=center;verticalAlign=middle;resizable=0;points=[];autosize=1;strokeColor=none;fillColor=none;" vertex="1" parent="1">
          <mxGeometry x="614" y="210" width="190" height="30" as="geometry" />
        </mxCell>
        <mxCell id="9FzsS78TiSVyDYdrgFTf-26" value="&lt;font style=&quot;font-size: 15px;&quot;&gt;Redshift&lt;/font&gt;" style="text;html=1;align=center;verticalAlign=middle;resizable=0;points=[];autosize=1;strokeColor=none;fillColor=none;fontSize=15;" vertex="1" parent="1">
          <mxGeometry x="668" y="230" width="80" height="30" as="geometry" />
        </mxCell>
        <mxCell id="9FzsS78TiSVyDYdrgFTf-27" value="1" style="ellipse;whiteSpace=wrap;html=1;aspect=fixed;" vertex="1" parent="1">
          <mxGeometry x="350" y="120" width="30" height="30" as="geometry" />
        </mxCell>
        <mxCell id="9FzsS78TiSVyDYdrgFTf-28" value="2" style="ellipse;whiteSpace=wrap;html=1;aspect=fixed;" vertex="1" parent="1">
          <mxGeometry x="349" y="-48" width="30" height="30" as="geometry" />
        </mxCell>
        <mxCell id="9FzsS78TiSVyDYdrgFTf-29" value="3" style="ellipse;whiteSpace=wrap;html=1;aspect=fixed;" vertex="1" parent="1">
          <mxGeometry x="434" y="-48" width="30" height="30" as="geometry" />
        </mxCell>
        <mxCell id="9FzsS78TiSVyDYdrgFTf-30" value="4" style="ellipse;whiteSpace=wrap;html=1;aspect=fixed;" vertex="1" parent="1">
          <mxGeometry x="559" y="120" width="30" height="30" as="geometry" />
        </mxCell>
        <mxCell id="9FzsS78TiSVyDYdrgFTf-31" value="5" style="ellipse;whiteSpace=wrap;html=1;aspect=fixed;" vertex="1" parent="1">
          <mxGeometry x="638" y="120" width="30" height="30" as="geometry" />
        </mxCell>
      </root>
    </mxGraphModel>
  </diagram>
</mxfile>
